<svg width="116" height="95" viewBox="0 0 116 95" fill="none" xmlns="http://www.w3.org/2000/svg">
<path d="M99.077 33.3059C114.691 42.3208 120.041 62.2868 111.026 77.9011C102.011 93.5154 82.0454 98.8653 66.4311 89.8504C59.104 85.6201 54.0384 78.9785 51.6562 71.5067C50.1868 66.8977 44.3282 63.5152 39.6019 64.5471C31.9401 66.22 23.6555 65.1538 16.3284 60.9236C0.714101 51.9086 -4.63576 31.9427 4.37917 16.3284C13.3941 0.714056 33.3601 -4.6358 48.9744 4.37913C56.3014 8.60938 61.3672 15.2509 63.7495 22.7227C65.219 27.3316 71.0773 30.7139 75.8035 29.6821C83.4654 28.0093 91.75 29.0757 99.077 33.3059Z" fill="url(#paint0_linear_270_3993)"/>
<defs>
<linearGradient id="paint0_linear_270_3993" x1="74.0257" y1="18.8425" x2="41.3798" y2="75.387" gradientUnits="userSpaceOnUse">
<stop stop-color="#D3F36B"/>
<stop offset="1" stop-color="#9AE600"/>
</linearGradient>
</defs>
</svg>
