<svg width="344" height="348" viewBox="0 0 344 348" fill="none" xmlns="http://www.w3.org/2000/svg">
<path d="M221.943 60.4914C254.961 27.4735 308.493 27.4734 341.511 60.4914C374.529 93.5094 374.529 147.042 341.511 180.06C326.018 195.554 306.008 203.774 285.72 204.725C279.274 205.027 272.898 208.363 268.069 213.192C263.24 218.021 259.905 224.396 259.603 230.842C258.652 251.131 250.432 271.14 234.938 286.634C201.92 319.652 148.387 319.652 115.369 286.634C82.3512 253.616 82.3512 200.083 115.369 167.065C130.863 151.571 150.872 143.351 171.161 142.4C177.607 142.098 183.981 138.762 188.81 133.933C193.639 129.104 196.975 122.729 197.278 116.283C198.229 95.9945 206.449 75.9852 221.943 60.4914Z" stroke="url(#paint0_linear_11_14731)"/>
<path opacity="0.3" d="M203.081 177.477C231.643 193.968 241.429 230.49 224.939 259.052C208.449 287.614 171.927 297.4 143.365 280.909C132.723 274.765 124.689 265.84 119.649 255.582C114.092 244.271 98.0824 235.028 85.5081 235.871C74.1045 236.635 62.3581 234.14 51.716 227.996C23.1541 211.506 13.368 174.984 29.8583 146.422C46.3485 117.86 82.8706 108.074 111.433 124.564C122.075 130.708 130.109 139.633 135.149 149.892C140.706 161.203 156.715 170.445 169.289 169.602C180.693 168.838 192.439 171.333 203.081 177.477Z" fill="url(#paint1_linear_11_14731)"/>
<defs>
<linearGradient id="paint0_linear_11_14731" x1="168.302" y1="113.425" x2="288.578" y2="233.7" gradientUnits="userSpaceOnUse">
<stop stop-color="#9AE600"/>
<stop offset="1" stop-color="#BEDBFF"/>
</linearGradient>
<linearGradient id="paint1_linear_11_14731" x1="157.257" y1="151.021" x2="97.5404" y2="254.453" gradientUnits="userSpaceOnUse">
<stop stop-color="#9AE600"/>
<stop offset="1" stop-color="#BEDBFF"/>
</linearGradient>
</defs>
</svg>
