<svg width="50" height="27" viewBox="0 0 50 27" fill="none" xmlns="http://www.w3.org/2000/svg">
<path d="M36.0874 0C43.277 0 49.1053 5.82829 49.1053 13.0178C49.1053 20.2074 43.277 26.0357 36.0874 26.0357C32.7137 26.0357 29.6402 24.7521 27.3278 22.6468C25.9014 21.3481 23.2039 21.3481 21.7775 22.6468C19.4651 24.7521 16.3916 26.0357 13.0178 26.0357C5.82829 26.0357 0 20.2074 0 13.0178C0 5.82829 5.82829 0 13.0178 0C16.3915 0 19.4651 1.28355 21.7775 3.38883C23.2039 4.68744 25.9014 4.68744 27.3277 3.38883C29.6402 1.28355 32.7137 0 36.0874 0Z" fill="url(#paint0_linear_270_3996)"/>
<defs>
<linearGradient id="paint0_linear_270_3996" x1="24.5526" y1="0" x2="24.5526" y2="26.0357" gradientUnits="userSpaceOnUse">
<stop stop-color="#D3F36B"/>
<stop offset="1" stop-color="#9AE600"/>
</linearGradient>
</defs>
</svg>
