<svg width="24" height="24" viewBox="0 0 24 24" fill="none" xmlns="http://www.w3.org/2000/svg">
<path d="M8.99707 19.5004H17.9971C18.8255 19.5004 19.4971 18.8287 19.4971 18.0003C19.4971 14.6866 16.8108 12 13.4971 12C10.1834 12 7.49707 14.6866 7.49707 18.0003C7.49707 18.8287 8.16864 19.5004 8.99707 19.5004Z" fill="#B0D8DD"/>
<path d="M13.4971 10.5C15.1539 10.5 16.4971 9.15685 16.4971 7.5C16.4971 5.84315 15.1539 4.5 13.4971 4.5C11.8402 4.5 10.4971 5.84315 10.4971 7.5C10.4971 9.15685 11.8402 10.5 13.4971 10.5Z" fill="#B0D8DD"/>
<path d="M5.99707 19.5004H14.9971C15.8255 19.5004 16.4971 18.8287 16.4971 18.0003C16.4971 14.6866 13.8108 12 10.4971 12C7.18336 12 4.49707 14.6866 4.49707 18.0003C4.49707 18.8287 5.16864 19.5004 5.99707 19.5004Z" fill="#1FAE56"/>
<path d="M10.4971 10.5C12.1539 10.5 13.4971 9.15685 13.4971 7.5C13.4971 5.84315 12.1539 4.5 10.4971 4.5C8.84022 4.5 7.49707 5.84315 7.49707 7.5C7.49707 9.15685 8.84022 10.5 10.4971 10.5Z" fill="#1FAE56"/>
</svg>
